<mxfile host="Electron" agent="Mozilla/5.0 (Windows NT 10.0; Win64; x64) AppleWebKit/537.36 (KHTML, like Gecko) draw.io/24.7.17 Chrome/128.0.6613.36 Electron/32.0.1 Safari/537.36" version="24.7.17" pages="5">
  <diagram name="001 Application Layers" id="gvBEHBnXVE5fomXgf-p2">
    <mxGraphModel dx="1434" dy="2005" grid="1" gridSize="10" guides="1" tooltips="1" connect="1" arrows="1" fold="1" page="1" pageScale="1" pageWidth="827" pageHeight="1169" math="0" shadow="0">
      <root>
        <mxCell id="0" />
        <mxCell id="1" parent="0" />
        <mxCell id="zTb2MQkQN2fM4mQIT8jo-1" value="&lt;p style=&quot;padding: 0px; margin: 12px 0px 0px; word-break: break-word; line-height: var(--cib-type-body2-line-height); font-variation-settings: var(--cib-type-body2-font-variation-settings); font-family: -apple-system, Roboto, SegoeUI, &amp;quot;Segoe UI&amp;quot;, &amp;quot;Helvetica Neue&amp;quot;, Helvetica, &amp;quot;Microsoft YaHei&amp;quot;, &amp;quot;Meiryo UI&amp;quot;, Meiryo, &amp;quot;Arial Unicode MS&amp;quot;, sans-serif; font-size: 22px;&quot;&gt;&lt;b&gt;To build your application in &lt;font color=&quot;#4d9900&quot;&gt;Clean Architecuter&lt;/font&gt; you must divide your app in to a number of feature, each of them contains 3 layers&lt;/b&gt;&lt;/p&gt;" style="text;html=1;align=left;verticalAlign=middle;whiteSpace=wrap;rounded=0;fillColor=none;" vertex="1" parent="1">
          <mxGeometry x="40" y="-1120" width="660" height="120" as="geometry" />
        </mxCell>
        <mxCell id="zTb2MQkQN2fM4mQIT8jo-2" value="01. Presentation Layer" style="swimlane;childLayout=stackLayout;horizontal=1;startSize=50;horizontalStack=0;rounded=1;fontSize=16;fontStyle=1;strokeWidth=2;resizeParent=0;resizeLast=1;shadow=0;dashed=0;align=center;fillColor=#f5f5f5;strokeColor=#666666;fontColor=default;" vertex="1" parent="1">
          <mxGeometry x="40" y="-880" width="320" height="200" as="geometry" />
        </mxCell>
        <mxCell id="zTb2MQkQN2fM4mQIT8jo-3" value="&lt;div style=&quot;&quot;&gt;&lt;span style=&quot;background-color: initial; font-size: 18px;&quot;&gt;&lt;font face=&quot;-apple-system, Roboto, SegoeUI, Segoe UI, Helvetica Neue, Helvetica, Microsoft YaHei, Meiryo UI, Meiryo, Arial Unicode MS, sans-serif&quot; color=&quot;#111111&quot;&gt;&lt;b&gt;This layer is responsible for the user interface and user interactions.&amp;nbsp;&lt;/b&gt;&lt;/font&gt;&lt;/span&gt;&lt;/div&gt;" style="text;html=1;strokeColor=none;fillColor=none;align=center;verticalAlign=middle;whiteSpace=wrap;rounded=0;fontSize=16;" vertex="1" parent="zTb2MQkQN2fM4mQIT8jo-2">
          <mxGeometry y="50" width="320" height="150" as="geometry" />
        </mxCell>
        <mxCell id="zTb2MQkQN2fM4mQIT8jo-4" value="02. Domain Layer" style="swimlane;childLayout=stackLayout;horizontal=1;startSize=50;horizontalStack=0;rounded=1;fontSize=16;fontStyle=1;strokeWidth=2;resizeParent=0;resizeLast=1;shadow=0;dashed=0;align=center;fillColor=#f5f5f5;strokeColor=#666666;fontColor=default;" vertex="1" parent="1">
          <mxGeometry x="440" y="-880" width="320" height="200" as="geometry" />
        </mxCell>
        <mxCell id="zTb2MQkQN2fM4mQIT8jo-5" value="&lt;div style=&quot;&quot;&gt;&lt;font face=&quot;-apple-system, Roboto, SegoeUI, Segoe UI, Helvetica Neue, Helvetica, Microsoft YaHei, Meiryo UI, Meiryo, Arial Unicode MS, sans-serif&quot; color=&quot;#111111&quot;&gt;&lt;span style=&quot;font-size: 18px;&quot;&gt;&lt;b&gt;The domain layer contains the business logic of the application. It is independent of any external frameworks or libraries.&lt;/b&gt;&lt;/span&gt;&lt;/font&gt;&lt;br&gt;&lt;/div&gt;" style="text;html=1;strokeColor=none;fillColor=none;align=center;verticalAlign=middle;whiteSpace=wrap;rounded=0;fontSize=16;" vertex="1" parent="zTb2MQkQN2fM4mQIT8jo-4">
          <mxGeometry y="50" width="320" height="150" as="geometry" />
        </mxCell>
        <mxCell id="zTb2MQkQN2fM4mQIT8jo-10" value="03. Data Layer" style="swimlane;childLayout=stackLayout;horizontal=1;startSize=50;horizontalStack=0;rounded=1;fontSize=16;fontStyle=1;strokeWidth=2;resizeParent=0;resizeLast=1;shadow=0;dashed=0;align=center;fillColor=#f5f5f5;strokeColor=#666666;fontColor=default;" vertex="1" parent="1">
          <mxGeometry x="200" y="-600" width="400" height="200" as="geometry" />
        </mxCell>
        <mxCell id="zTb2MQkQN2fM4mQIT8jo-11" value="&lt;div style=&quot;&quot;&gt;&lt;font face=&quot;-apple-system, Roboto, SegoeUI, Segoe UI, Helvetica Neue, Helvetica, Microsoft YaHei, Meiryo UI, Meiryo, Arial Unicode MS, sans-serif&quot; color=&quot;#111111&quot;&gt;&lt;span style=&quot;font-size: 18px;&quot;&gt;&lt;b&gt;This layer handles data fetching, storage, and caching.&lt;/b&gt;&lt;/span&gt;&lt;/font&gt;&lt;br&gt;&lt;/div&gt;" style="text;html=1;strokeColor=none;fillColor=none;align=center;verticalAlign=middle;whiteSpace=wrap;rounded=0;fontSize=16;" vertex="1" parent="zTb2MQkQN2fM4mQIT8jo-10">
          <mxGeometry y="50" width="400" height="150" as="geometry" />
        </mxCell>
      </root>
    </mxGraphModel>
  </diagram>
  <diagram id="Hwz7FHXs7-LQoEL-tuQw" name="002 domain layer">
    <mxGraphModel dx="1434" dy="2005" grid="1" gridSize="10" guides="1" tooltips="1" connect="1" arrows="1" fold="1" page="1" pageScale="1" pageWidth="827" pageHeight="1169" math="0" shadow="0">
      <root>
        <mxCell id="0" />
        <mxCell id="1" parent="0" />
        <mxCell id="YTzxvVOySxyoqqvS9ZXt-1" value="&lt;p style=&quot;padding: 0px; margin: 12px 0px 0px; word-break: break-word; line-height: var(--cib-type-body2-line-height); font-variation-settings: var(--cib-type-body2-font-variation-settings);&quot;&gt;&lt;font face=&quot;-apple-system, Roboto, SegoeUI, Segoe UI, Helvetica Neue, Helvetica, Microsoft YaHei, Meiryo UI, Meiryo, Arial Unicode MS, sans-serif&quot;&gt;&lt;span style=&quot;font-size: 22px;&quot;&gt;&lt;b&gt;The domain layer contains the business logic of the application. It is independent of any external frameworks or libraries. This layer includes:&lt;/b&gt;&lt;/span&gt;&lt;/font&gt;&lt;/p&gt;&lt;div&gt;&lt;br&gt;&lt;/div&gt;" style="text;html=1;align=left;verticalAlign=middle;whiteSpace=wrap;rounded=0;fillColor=none;" vertex="1" parent="1">
          <mxGeometry x="40" y="-1000" width="720" height="100" as="geometry" />
        </mxCell>
        <mxCell id="YTzxvVOySxyoqqvS9ZXt-2" value="01. Entities" style="swimlane;childLayout=stackLayout;horizontal=1;startSize=50;horizontalStack=0;rounded=1;fontSize=16;fontStyle=1;strokeWidth=2;resizeParent=0;resizeLast=1;shadow=0;dashed=0;align=center;fillColor=#f5f5f5;strokeColor=#666666;fontColor=default;" vertex="1" parent="1">
          <mxGeometry x="40" y="-800" width="320" height="200" as="geometry" />
        </mxCell>
        <mxCell id="YTzxvVOySxyoqqvS9ZXt-3" value="&lt;div style=&quot;&quot;&gt;&lt;span style=&quot;background-color: initial; font-size: 18px;&quot;&gt;&lt;font face=&quot;-apple-system, Roboto, SegoeUI, Segoe UI, Helvetica Neue, Helvetica, Microsoft YaHei, Meiryo UI, Meiryo, Arial Unicode MS, sans-serif&quot; color=&quot;#111111&quot;&gt;&lt;b&gt;This layer is responsible for the user interface and user interactions.&amp;nbsp;&lt;br&gt;&lt;br&gt;What is the shape of the data needed by the app to work properly.&lt;/b&gt;&lt;/font&gt;&lt;/span&gt;&lt;/div&gt;" style="text;html=1;strokeColor=none;fillColor=none;align=center;verticalAlign=middle;whiteSpace=wrap;rounded=0;fontSize=16;" vertex="1" parent="YTzxvVOySxyoqqvS9ZXt-2">
          <mxGeometry y="50" width="320" height="150" as="geometry" />
        </mxCell>
        <mxCell id="YTzxvVOySxyoqqvS9ZXt-4" value="02. Use Cases" style="swimlane;childLayout=stackLayout;horizontal=1;startSize=50;horizontalStack=0;rounded=1;fontSize=16;fontStyle=1;strokeWidth=2;resizeParent=0;resizeLast=1;shadow=0;dashed=0;align=center;fillColor=#f5f5f5;strokeColor=#666666;fontColor=default;" vertex="1" parent="1">
          <mxGeometry x="440" y="-800" width="320" height="200" as="geometry" />
        </mxCell>
        <mxCell id="YTzxvVOySxyoqqvS9ZXt-5" value="&lt;div style=&quot;&quot;&gt;&lt;font face=&quot;-apple-system, Roboto, SegoeUI, Segoe UI, Helvetica Neue, Helvetica, Microsoft YaHei, Meiryo UI, Meiryo, Arial Unicode MS, sans-serif&quot; color=&quot;#111111&quot;&gt;&lt;span style=&quot;font-size: 18px;&quot;&gt;&lt;b&gt;Specific actions or operations that can be performed, encapsulating the business rules.&lt;/b&gt;&lt;/span&gt;&lt;/font&gt;&lt;br&gt;&lt;/div&gt;" style="text;html=1;strokeColor=none;fillColor=none;align=center;verticalAlign=middle;whiteSpace=wrap;rounded=0;fontSize=16;" vertex="1" parent="YTzxvVOySxyoqqvS9ZXt-4">
          <mxGeometry y="50" width="320" height="150" as="geometry" />
        </mxCell>
        <mxCell id="YTzxvVOySxyoqqvS9ZXt-6" value="03. Repositories (Interfaces)" style="swimlane;childLayout=stackLayout;horizontal=1;startSize=50;horizontalStack=0;rounded=1;fontSize=16;fontStyle=1;strokeWidth=2;resizeParent=0;resizeLast=1;shadow=0;dashed=0;align=center;fillColor=#f5f5f5;strokeColor=#666666;fontColor=default;" vertex="1" parent="1">
          <mxGeometry x="200" y="-520" width="400" height="200" as="geometry" />
        </mxCell>
        <mxCell id="YTzxvVOySxyoqqvS9ZXt-7" value="&lt;div style=&quot;&quot;&gt;&lt;font face=&quot;-apple-system, Roboto, SegoeUI, Segoe UI, Helvetica Neue, Helvetica, Microsoft YaHei, Meiryo UI, Meiryo, Arial Unicode MS, sans-serif&quot; color=&quot;#111111&quot;&gt;&lt;span style=&quot;font-size: 18px;&quot;&gt;&lt;b&gt;&amp;nbsp;Abstract definitions of data operations, which are implemented in the data layer&lt;/b&gt;&lt;/span&gt;&lt;/font&gt;&lt;br&gt;&lt;/div&gt;" style="text;html=1;strokeColor=none;fillColor=none;align=center;verticalAlign=middle;whiteSpace=wrap;rounded=0;fontSize=16;" vertex="1" parent="YTzxvVOySxyoqqvS9ZXt-6">
          <mxGeometry y="50" width="400" height="150" as="geometry" />
        </mxCell>
        <mxCell id="YTzxvVOySxyoqqvS9ZXt-8" value="&lt;p style=&quot;padding: 0px; margin: 12px 0px 0px; word-break: break-word; line-height: var(--cib-type-body2-line-height); font-variation-settings: var(--cib-type-body2-font-variation-settings);&quot;&gt;&lt;font size=&quot;1&quot; color=&quot;#ff3333&quot; face=&quot;-apple-system, Roboto, SegoeUI, Segoe UI, Helvetica Neue, Helvetica, Microsoft YaHei, Meiryo UI, Meiryo, Arial Unicode MS, sans-serif&quot;&gt;&lt;b style=&quot;font-size: 30px;&quot;&gt;Domain Layer&lt;/b&gt;&lt;/font&gt;&lt;/p&gt;" style="text;html=1;align=center;verticalAlign=middle;whiteSpace=wrap;rounded=0;fillColor=none;" vertex="1" parent="1">
          <mxGeometry x="40" y="-1080" width="760" height="70" as="geometry" />
        </mxCell>
      </root>
    </mxGraphModel>
  </diagram>
  <diagram name="003 Data Layer" id="fhEXQC9HdMKAublmnylf">
    <mxGraphModel dx="1434" dy="2005" grid="1" gridSize="10" guides="1" tooltips="1" connect="1" arrows="1" fold="1" page="1" pageScale="1" pageWidth="827" pageHeight="1169" math="0" shadow="0">
      <root>
        <mxCell id="6d3iP6wCJgJy_FTViEhQ-0" />
        <mxCell id="6d3iP6wCJgJy_FTViEhQ-1" parent="6d3iP6wCJgJy_FTViEhQ-0" />
        <mxCell id="6d3iP6wCJgJy_FTViEhQ-2" value="&lt;p style=&quot;padding: 0px; margin: 12px 0px 0px; word-break: break-word; line-height: var(--cib-type-body2-line-height); font-variation-settings: var(--cib-type-body2-font-variation-settings);&quot;&gt;&lt;font face=&quot;-apple-system, Roboto, SegoeUI, Segoe UI, Helvetica Neue, Helvetica, Microsoft YaHei, Meiryo UI, Meiryo, Arial Unicode MS, sans-serif&quot;&gt;&lt;span style=&quot;font-size: 22px;&quot;&gt;&lt;b&gt;This layer handles data fetching, storage, and caching. It includes:&lt;/b&gt;&lt;/span&gt;&lt;/font&gt;&lt;br&gt;&lt;/p&gt;" style="text;html=1;align=left;verticalAlign=middle;whiteSpace=wrap;rounded=0;fillColor=none;" vertex="1" parent="6d3iP6wCJgJy_FTViEhQ-1">
          <mxGeometry x="40" y="-1000" width="720" height="80" as="geometry" />
        </mxCell>
        <mxCell id="6d3iP6wCJgJy_FTViEhQ-3" value="01. Data Sources" style="swimlane;childLayout=stackLayout;horizontal=1;startSize=50;horizontalStack=0;rounded=1;fontSize=16;fontStyle=1;strokeWidth=2;resizeParent=0;resizeLast=1;shadow=0;dashed=0;align=center;fillColor=#f5f5f5;strokeColor=#666666;fontColor=default;" vertex="1" parent="6d3iP6wCJgJy_FTViEhQ-1">
          <mxGeometry x="30" y="-840" width="320" height="200" as="geometry" />
        </mxCell>
        <mxCell id="6d3iP6wCJgJy_FTViEhQ-4" value="&lt;div style=&quot;&quot;&gt;&lt;span style=&quot;background-color: initial;&quot;&gt;&lt;font style=&quot;&quot; face=&quot;-apple-system, Roboto, SegoeUI, Segoe UI, Helvetica Neue, Helvetica, Microsoft YaHei, Meiryo UI, Meiryo, Arial Unicode MS, sans-serif&quot; color=&quot;#111111&quot;&gt;&lt;span style=&quot;font-size: 18px;&quot;&gt;&lt;b&gt;Responsible for accessing data from various sources like APIs, databases, or local storage.&lt;/b&gt;&lt;/span&gt;&lt;br&gt;&lt;/font&gt;&lt;/span&gt;&lt;/div&gt;" style="text;html=1;strokeColor=none;fillColor=none;align=center;verticalAlign=middle;whiteSpace=wrap;rounded=0;fontSize=16;" vertex="1" parent="6d3iP6wCJgJy_FTViEhQ-3">
          <mxGeometry y="50" width="320" height="150" as="geometry" />
        </mxCell>
        <mxCell id="6d3iP6wCJgJy_FTViEhQ-5" value="02. Models" style="swimlane;childLayout=stackLayout;horizontal=1;startSize=50;horizontalStack=0;rounded=1;fontSize=16;fontStyle=1;strokeWidth=2;resizeParent=0;resizeLast=1;shadow=0;dashed=0;align=center;fillColor=#f5f5f5;strokeColor=#666666;fontColor=default;" vertex="1" parent="6d3iP6wCJgJy_FTViEhQ-1">
          <mxGeometry x="430" y="-840" width="320" height="200" as="geometry" />
        </mxCell>
        <mxCell id="6d3iP6wCJgJy_FTViEhQ-6" value="&lt;div style=&quot;&quot;&gt;&lt;font face=&quot;-apple-system, Roboto, SegoeUI, Segoe UI, Helvetica Neue, Helvetica, Microsoft YaHei, Meiryo UI, Meiryo, Arial Unicode MS, sans-serif&quot; color=&quot;#111111&quot;&gt;&lt;span style=&quot;font-size: 18px;&quot;&gt;&lt;b&gt;Data transfer objects (DTOs) that map to the data structures used by the data sources.&lt;/b&gt;&lt;/span&gt;&lt;/font&gt;&lt;br&gt;&lt;/div&gt;" style="text;html=1;strokeColor=none;fillColor=none;align=center;verticalAlign=middle;whiteSpace=wrap;rounded=0;fontSize=16;" vertex="1" parent="6d3iP6wCJgJy_FTViEhQ-5">
          <mxGeometry y="50" width="320" height="150" as="geometry" />
        </mxCell>
        <mxCell id="6d3iP6wCJgJy_FTViEhQ-7" value="03. Repositories (Implementations)" style="swimlane;childLayout=stackLayout;horizontal=1;startSize=50;horizontalStack=0;rounded=1;fontSize=16;fontStyle=1;strokeWidth=2;resizeParent=0;resizeLast=1;shadow=0;dashed=0;align=center;fillColor=#f5f5f5;strokeColor=#666666;fontColor=default;" vertex="1" parent="6d3iP6wCJgJy_FTViEhQ-1">
          <mxGeometry x="220" y="-560" width="360" height="200" as="geometry" />
        </mxCell>
        <mxCell id="6d3iP6wCJgJy_FTViEhQ-8" value="&lt;div style=&quot;&quot;&gt;&lt;font face=&quot;-apple-system, Roboto, SegoeUI, Segoe UI, Helvetica Neue, Helvetica, Microsoft YaHei, Meiryo UI, Meiryo, Arial Unicode MS, sans-serif&quot; color=&quot;#111111&quot;&gt;&lt;span style=&quot;font-size: 18px;&quot;&gt;&lt;b&gt;Concrete implementations of the repository interfaces defined in the domain layer.&lt;/b&gt;&lt;/span&gt;&lt;/font&gt;&lt;br&gt;&lt;/div&gt;" style="text;html=1;strokeColor=none;fillColor=none;align=center;verticalAlign=middle;whiteSpace=wrap;rounded=0;fontSize=16;" vertex="1" parent="6d3iP6wCJgJy_FTViEhQ-7">
          <mxGeometry y="50" width="360" height="150" as="geometry" />
        </mxCell>
        <mxCell id="6d3iP6wCJgJy_FTViEhQ-9" value="&lt;p style=&quot;padding: 0px; margin: 12px 0px 0px; word-break: break-word; line-height: var(--cib-type-body2-line-height); font-variation-settings: var(--cib-type-body2-font-variation-settings);&quot;&gt;&lt;font size=&quot;1&quot; color=&quot;#ff3333&quot; face=&quot;-apple-system, Roboto, SegoeUI, Segoe UI, Helvetica Neue, Helvetica, Microsoft YaHei, Meiryo UI, Meiryo, Arial Unicode MS, sans-serif&quot;&gt;&lt;b style=&quot;font-size: 30px;&quot;&gt;Data Layer&lt;/b&gt;&lt;/font&gt;&lt;/p&gt;" style="text;html=1;align=center;verticalAlign=middle;whiteSpace=wrap;rounded=0;fillColor=none;" vertex="1" parent="6d3iP6wCJgJy_FTViEhQ-1">
          <mxGeometry x="40" y="-1080" width="760" height="70" as="geometry" />
        </mxCell>
      </root>
    </mxGraphModel>
  </diagram>
  <diagram name="004 Presentation Layer" id="ipg6LfKiiPs0S-PbDFkd">
    <mxGraphModel dx="1434" dy="2005" grid="1" gridSize="10" guides="1" tooltips="1" connect="1" arrows="1" fold="1" page="1" pageScale="1" pageWidth="827" pageHeight="1169" math="0" shadow="0">
      <root>
        <mxCell id="hqQp52a-Ei2S_DL1itfR-0" />
        <mxCell id="hqQp52a-Ei2S_DL1itfR-1" parent="hqQp52a-Ei2S_DL1itfR-0" />
        <mxCell id="hqQp52a-Ei2S_DL1itfR-2" value="&lt;p style=&quot;padding: 0px; margin: 12px 0px 0px; word-break: break-word; line-height: var(--cib-type-body2-line-height); font-variation-settings: var(--cib-type-body2-font-variation-settings);&quot;&gt;&lt;font face=&quot;-apple-system, Roboto, SegoeUI, Segoe UI, Helvetica Neue, Helvetica, Microsoft YaHei, Meiryo UI, Meiryo, Arial Unicode MS, sans-serif&quot;&gt;&lt;span style=&quot;font-size: 22px;&quot;&gt;&lt;b&gt;This layer is responsible for the user interface and user interactions. It includes:&lt;/b&gt;&lt;/span&gt;&lt;/font&gt;&lt;br&gt;&lt;/p&gt;" style="text;html=1;align=left;verticalAlign=middle;whiteSpace=wrap;rounded=0;fillColor=none;" vertex="1" parent="hqQp52a-Ei2S_DL1itfR-1">
          <mxGeometry x="40" y="-1000" width="720" height="80" as="geometry" />
        </mxCell>
        <mxCell id="hqQp52a-Ei2S_DL1itfR-3" value="01. Widgets" style="swimlane;childLayout=stackLayout;horizontal=1;startSize=50;horizontalStack=0;rounded=1;fontSize=16;fontStyle=1;strokeWidth=2;resizeParent=0;resizeLast=1;shadow=0;dashed=0;align=center;fillColor=#f5f5f5;strokeColor=#666666;fontColor=default;" vertex="1" parent="hqQp52a-Ei2S_DL1itfR-1">
          <mxGeometry x="30" y="-840" width="320" height="200" as="geometry" />
        </mxCell>
        <mxCell id="hqQp52a-Ei2S_DL1itfR-4" value="&lt;div style=&quot;&quot;&gt;&lt;span style=&quot;background-color: initial;&quot;&gt;&lt;font style=&quot;&quot; face=&quot;-apple-system, Roboto, SegoeUI, Segoe UI, Helvetica Neue, Helvetica, Microsoft YaHei, Meiryo UI, Meiryo, Arial Unicode MS, sans-serif&quot; color=&quot;#111111&quot;&gt;&lt;span style=&quot;font-size: 18px;&quot;&gt;&lt;b&gt;The UI components that users interact with.&lt;/b&gt;&lt;/span&gt;&lt;br&gt;&lt;/font&gt;&lt;/span&gt;&lt;/div&gt;" style="text;html=1;strokeColor=none;fillColor=none;align=center;verticalAlign=middle;whiteSpace=wrap;rounded=0;fontSize=16;" vertex="1" parent="hqQp52a-Ei2S_DL1itfR-3">
          <mxGeometry y="50" width="320" height="150" as="geometry" />
        </mxCell>
        <mxCell id="hqQp52a-Ei2S_DL1itfR-5" value="02. State Management" style="swimlane;childLayout=stackLayout;horizontal=1;startSize=50;horizontalStack=0;rounded=1;fontSize=16;fontStyle=1;strokeWidth=2;resizeParent=0;resizeLast=1;shadow=0;dashed=0;align=center;fillColor=#f5f5f5;strokeColor=#666666;fontColor=default;" vertex="1" parent="hqQp52a-Ei2S_DL1itfR-1">
          <mxGeometry x="430" y="-840" width="320" height="200" as="geometry" />
        </mxCell>
        <mxCell id="hqQp52a-Ei2S_DL1itfR-6" value="&lt;div style=&quot;&quot;&gt;&lt;font face=&quot;-apple-system, Roboto, SegoeUI, Segoe UI, Helvetica Neue, Helvetica, Microsoft YaHei, Meiryo UI, Meiryo, Arial Unicode MS, sans-serif&quot; color=&quot;#111111&quot;&gt;&lt;span style=&quot;font-size: 18px;&quot;&gt;&lt;b&gt;Manages the state of the UI, often using tools like Provider, Bloc, or GetX.&lt;/b&gt;&lt;/span&gt;&lt;/font&gt;&lt;br&gt;&lt;/div&gt;" style="text;html=1;strokeColor=none;fillColor=none;align=center;verticalAlign=middle;whiteSpace=wrap;rounded=0;fontSize=16;" vertex="1" parent="hqQp52a-Ei2S_DL1itfR-5">
          <mxGeometry y="50" width="320" height="150" as="geometry" />
        </mxCell>
        <mxCell id="hqQp52a-Ei2S_DL1itfR-7" value="03. Input Validation" style="swimlane;childLayout=stackLayout;horizontal=1;startSize=50;horizontalStack=0;rounded=1;fontSize=16;fontStyle=1;strokeWidth=2;resizeParent=0;resizeLast=1;shadow=0;dashed=0;align=center;fillColor=#f5f5f5;strokeColor=#666666;fontColor=default;" vertex="1" parent="hqQp52a-Ei2S_DL1itfR-1">
          <mxGeometry x="220" y="-560" width="360" height="200" as="geometry" />
        </mxCell>
        <mxCell id="hqQp52a-Ei2S_DL1itfR-8" value="&lt;div style=&quot;&quot;&gt;&lt;font face=&quot;-apple-system, Roboto, SegoeUI, Segoe UI, Helvetica Neue, Helvetica, Microsoft YaHei, Meiryo UI, Meiryo, Arial Unicode MS, sans-serif&quot; color=&quot;#111111&quot;&gt;&lt;span style=&quot;font-size: 18px;&quot;&gt;&lt;b&gt;Ensures that user inputs are valid before passing them to the domain layer.&lt;/b&gt;&lt;/span&gt;&lt;/font&gt;&lt;br&gt;&lt;/div&gt;" style="text;html=1;strokeColor=none;fillColor=none;align=center;verticalAlign=middle;whiteSpace=wrap;rounded=0;fontSize=16;" vertex="1" parent="hqQp52a-Ei2S_DL1itfR-7">
          <mxGeometry y="50" width="360" height="150" as="geometry" />
        </mxCell>
        <mxCell id="hqQp52a-Ei2S_DL1itfR-9" value="&lt;p style=&quot;padding: 0px; margin: 12px 0px 0px; word-break: break-word; line-height: var(--cib-type-body2-line-height); font-variation-settings: var(--cib-type-body2-font-variation-settings);&quot;&gt;&lt;font size=&quot;1&quot; color=&quot;#ff3333&quot; face=&quot;-apple-system, Roboto, SegoeUI, Segoe UI, Helvetica Neue, Helvetica, Microsoft YaHei, Meiryo UI, Meiryo, Arial Unicode MS, sans-serif&quot;&gt;&lt;b style=&quot;font-size: 30px;&quot;&gt;Presentation Layer&lt;/b&gt;&lt;/font&gt;&lt;/p&gt;" style="text;html=1;align=center;verticalAlign=middle;whiteSpace=wrap;rounded=0;fillColor=none;" vertex="1" parent="hqQp52a-Ei2S_DL1itfR-1">
          <mxGeometry x="40" y="-1080" width="760" height="70" as="geometry" />
        </mxCell>
      </root>
    </mxGraphModel>
  </diagram>
  <diagram id="Mg5skaNCPrmeYL3z2u3r" name="005 Exmaple Flow">
    <mxGraphModel dx="1434" dy="836" grid="1" gridSize="10" guides="1" tooltips="1" connect="1" arrows="1" fold="1" page="1" pageScale="1" pageWidth="827" pageHeight="1169" math="0" shadow="0">
      <root>
        <mxCell id="0" />
        <mxCell id="1" parent="0" />
        <mxCell id="_YdfsQtiBQPsw-vIedC3-1" value="&lt;h3 style=&quot;padding: 0px; margin: 12px 0px 0px; word-break: break-word; line-height: var(--cib-type-subtitle1-stronger-line-height); font-weight: var(--cib-type-subtitle1-stronger-font-weight); font-variation-settings: var(--cib-type-subtitle1-stronger-font-variation-settings); color: rgb(17, 17, 17); font-family: -apple-system, Roboto, SegoeUI, &amp;quot;Segoe UI&amp;quot;, &amp;quot;Helvetica Neue&amp;quot;, Helvetica, &amp;quot;Microsoft YaHei&amp;quot;, &amp;quot;Meiryo UI&amp;quot;, Meiryo, &amp;quot;Arial Unicode MS&amp;quot;, sans-serif; font-style: normal; font-variant-ligatures: normal; font-variant-caps: normal; letter-spacing: normal; orphans: 2; text-align: left; text-indent: 0px; text-transform: none; widows: 2; word-spacing: 0px; -webkit-text-stroke-width: 0px; white-space: normal; background-color: rgb(255, 255, 255); text-decoration-thickness: initial; text-decoration-style: initial; text-decoration-color: initial; font-size: 20px;&quot;&gt;&lt;font style=&quot;font-size: 20px;&quot;&gt;Example Flow&lt;/font&gt;&lt;/h3&gt;&lt;ol style=&quot;margin: 12px 0px 0px; display: flex; flex-direction: column; gap: 12px; padding-inline-start: 24px; color: rgb(17, 17, 17); font-family: -apple-system, Roboto, SegoeUI, &amp;quot;Segoe UI&amp;quot;, &amp;quot;Helvetica Neue&amp;quot;, Helvetica, &amp;quot;Microsoft YaHei&amp;quot;, &amp;quot;Meiryo UI&amp;quot;, Meiryo, &amp;quot;Arial Unicode MS&amp;quot;, sans-serif; font-style: normal; font-variant-ligatures: normal; font-variant-caps: normal; font-weight: 400; letter-spacing: normal; orphans: 2; text-align: left; text-indent: 0px; text-transform: none; widows: 2; word-spacing: 0px; -webkit-text-stroke-width: 0px; white-space: normal; background-color: rgb(255, 255, 255); text-decoration-thickness: initial; text-decoration-style: initial; text-decoration-color: initial; font-size: 20px;&quot;&gt;&lt;li style=&quot;&quot;&gt;&lt;font style=&quot;font-size: 20px;&quot;&gt;&lt;strong&gt;User Action&lt;/strong&gt;: A user interacts with the UI (e.g., clicks a button).&lt;/font&gt;&lt;/li&gt;&lt;li style=&quot;&quot;&gt;&lt;font style=&quot;font-size: 20px;&quot;&gt;&lt;strong&gt;State Management&lt;/strong&gt;: The state management solution (e.g., Bloc) handles the event and calls a use case.&lt;/font&gt;&lt;/li&gt;&lt;li style=&quot;&quot;&gt;&lt;font style=&quot;font-size: 20px;&quot;&gt;&lt;strong&gt;Use Case&lt;/strong&gt;: The use case performs the business logic and interacts with the repository.&lt;/font&gt;&lt;/li&gt;&lt;li style=&quot;&quot;&gt;&lt;font style=&quot;font-size: 20px;&quot;&gt;&lt;strong&gt;Repository&lt;/strong&gt;: The repository fetches data from a data source (e.g., a remote API).&lt;/font&gt;&lt;/li&gt;&lt;li style=&quot;&quot;&gt;&lt;font style=&quot;font-size: 20px;&quot;&gt;&lt;strong&gt;Data Source&lt;/strong&gt;: The data source retrieves the data and returns it to the repository.&lt;/font&gt;&lt;/li&gt;&lt;li style=&quot;&quot;&gt;&lt;font style=&quot;font-size: 20px;&quot;&gt;&lt;strong&gt;Repository&lt;/strong&gt;: The repository returns the data to the use case.&lt;/font&gt;&lt;/li&gt;&lt;li style=&quot;&quot;&gt;&lt;font style=&quot;font-size: 20px;&quot;&gt;&lt;strong&gt;Use Case&lt;/strong&gt;: The use case processes the data and returns the result to the state management solution.&lt;/font&gt;&lt;/li&gt;&lt;li style=&quot;&quot;&gt;&lt;font style=&quot;font-size: 20px;&quot;&gt;&lt;strong style=&quot;&quot;&gt;State Management&lt;/strong&gt;: The state management solution updates the UI with the new state.&lt;/font&gt;&lt;/li&gt;&lt;/ol&gt;" style="text;whiteSpace=wrap;html=1;" vertex="1" parent="1">
          <mxGeometry x="50" y="130" width="720" height="650" as="geometry" />
        </mxCell>
      </root>
    </mxGraphModel>
  </diagram>
</mxfile>
